HIERARCHY
ROOT Hips
{
	OFFSET 0.000000 0.000000 0.000000
	CHANNELS 6 Xposition Yposition Zposition Zrotation Yrotation Xrotation 
	JOINT LHipJoint
	{
		OFFSET 0.000000 0.000000 0.000000
		CHANNELS 3 Zrotation Yrotation Xrotation
		JOINT LeftUpLeg
		{
			OFFSET 1.363060 -1.794630 0.839290
			CHANNELS 3 Zrotation Yrotation Xrotation
			JOINT LeftLeg
			{
				OFFSET 2.448110 -6.726130 0.000000
				CHANNELS 3 Zrotation Yrotation Xrotation
				JOINT LeftFoot
				{
					OFFSET 2.562200 -7.039590 0.000000
					CHANNELS 3 Zrotation Yrotation Xrotation
					JOINT LeftToeBase
					{
						OFFSET 0.157640 -0.433110 2.322550
						CHANNELS 3 Zrotation Yrotation Xrotation
						End Site
						{
							OFFSET 0.000000 0.000000 0.000000
						}
					}
				}
			}
		}
	}
	JOINT RHipJoint
	{
		OFFSET 0.000000 0.000000 0.000000
		CHANNELS 3 Zrotation Yrotation Xrotation
		JOINT RightUpLeg
		{
			OFFSET -1.305520 -1.794630 0.839290
			CHANNELS 3 Zrotation Yrotation Xrotation
			JOINT RightLeg
			{
				OFFSET -2.542530 -6.985550 0.000000
				CHANNELS 3 Zrotation Yrotation Xrotation
				JOINT RightFoot
				{
					OFFSET -2.568260 -7.056230 0.000000
					CHANNELS 3 Zrotation Yrotation Xrotation
					JOINT RightToeBase
					{
						OFFSET -0.164730 -0.452590 2.363150
						CHANNELS 3 Zrotation Yrotation Xrotation
						End Site
						{
							OFFSET 0.000000 0.000000 0.000000
						}
					}
				}
			}
		}
	}
	JOINT LowerBack
	{
		OFFSET 0.000000 0.000000 0.000000
		CHANNELS 3 Zrotation Yrotation Xrotation
		JOINT Spine
		{
			OFFSET 0.028270 2.035590 -0.193380
			CHANNELS 3 Zrotation Yrotation Xrotation
			JOINT Spine1
			{
				OFFSET 0.056720 2.048850 -0.042750
				CHANNELS 3 Zrotation Yrotation Xrotation
				JOINT Neck
				{
					OFFSET 0.000000 0.000000 0.000000
					CHANNELS 3 Zrotation Yrotation Xrotation
					JOINT Neck1
					{
						OFFSET -0.054170 1.746240 0.172020
						CHANNELS 3 Zrotation Yrotation Xrotation
						JOINT Head
						{
							OFFSET 0.104070 1.761360 -0.123970
							CHANNELS 3 Zrotation Yrotation Xrotation
							End Site
							{
								OFFSET 0.000000 0.000000 0.000000
							}
						}
					}
				}
				JOINT LeftShoulder
				{
					OFFSET 0.000000 0.000000 0.000000
					CHANNELS 3 Zrotation Yrotation Xrotation
					JOINT LeftArm
					{
						OFFSET 3.362410 1.200890 -0.311210
						CHANNELS 3 Zrotation Yrotation Xrotation
						JOINT LeftForeArm
						{
							OFFSET 4.983000 -0.000000 -0.000000
							CHANNELS 3 Zrotation Yrotation Xrotation
							JOINT LeftHand
							{
								OFFSET 3.483560 -0.000000 -0.000000
								CHANNELS 3 Zrotation Yrotation Xrotation
								JOINT LeftFingerBase
								{
									OFFSET 0.000000 0.000000 0.000000
									CHANNELS 3 Zrotation Yrotation Xrotation
									JOINT LeftHandIndex1
									{
										OFFSET 0.715260 -0.000000 -0.000000
										CHANNELS 3 Zrotation Yrotation Xrotation
										End Site
										{
											OFFSET 0.000000 0.000000 0.000000
										}
									}
								}
								JOINT LThumb
								{
									OFFSET 0.000000 0.000000 0.000000
									CHANNELS 3 Zrotation Yrotation Xrotation
									End Site
									{
										OFFSET 0.000000 0.000000 0.000000
									}
								}
							}
						}
					}
				}
				JOINT RightShoulder
				{
					OFFSET 0.000000 0.000000 0.000000
					CHANNELS 3 Zrotation Yrotation Xrotation
					JOINT RightArm
					{
						OFFSET -3.136600 1.374050 -0.404650
						CHANNELS 3 Zrotation Yrotation Xrotation
						JOINT RightForeArm
						{
							OFFSET -5.241900 -0.000000 -0.000000
							CHANNELS 3 Zrotation Yrotation Xrotation
							JOINT RightHand
							{
								OFFSET -3.444170 -0.000000 -0.000000
								CHANNELS 3 Zrotation Yrotation Xrotation
								JOINT RightFingerBase
								{
									OFFSET 0.000000 0.000000 0.000000
									CHANNELS 3 Zrotation Yrotation Xrotation
									JOINT RightHandIndex1
									{
										OFFSET -0.622530 -0.000000 -0.000000
										CHANNELS 3 Zrotation Yrotation Xrotation
										End Site
										{
											OFFSET 0.000000 0.000000 0.000000
										}
									}
								}
								JOINT RThumb
								{
									OFFSET 0.000000 0.000000 0.000000
									CHANNELS 3 Zrotation Yrotation Xrotation
									End Site
									{
										OFFSET 0.000000 0.000000 0.000000
									}
								}
							}
						}
					}
				}
			}
		}
	}
}
MOTION
Frames: 11
Frame Time: 0.008333
5.744889 14.327042 7.603011 -16.473065 26.233478 -45.132815 13.256029 -14.637785 -11.092129 18.204958 -22.778485 -29.171571 -71.076984 41.364446 -17.856075 15.693038 -6.252300 60.766214 0.544200 -4.726400 -13.129700 -28.310735 -8.251622 -1.388491 13.828583 -9.028293 -3.941821 -11.909710 -21.715920 41.981425 0.193122 -11.661952 58.327998 -0.250700 3.221500 -8.896100 3.780913 -4.776646 23.637856 -15.372601 2.461638 34.546321 14.566138 -27.840506 0.147648 -7.025394 -7.730616 -20.951765 9.544655 -10.675234 11.525685 2.347900 -4.642500 15.018800 1.135331 -35.920902 -5.310336 -33.859136 -50.050235 29.872286 44.814399 -23.335364 -55.296009 2.312539 -8.646963 -50.470464 2.406906 7.177883 1.895200 -7.125000 0.000000 0.000000 -18.167900 43.768300 0.572200 15.958482 13.447073 -2.051034 35.520111 20.209484 18.005902 -48.124171 44.152043 -70.374493 -4.968502 7.498594 -45.491274 0.494421 -14.752174 0.497700 7.125000 0.000000 0.000000 27.994900 -51.340600 -4.682900 
5.737712 14.334530 7.620017 -15.726017 26.274833 -45.052242 13.641106 -14.102589 -11.277606 17.766918 -23.033914 -30.070793 -70.613717 42.797441 -20.438550 15.033976 -6.851324 60.586361 0.688100 -5.303100 -14.775200 -28.449215 -8.186953 -1.559525 13.944964 -10.263880 -4.507949 -12.092979 -21.771617 41.904272 0.173433 -11.711743 58.284066 -0.248000 3.204400 -8.848500 4.106489 -4.850413 22.972680 -16.752018 -1.891590 33.592194 14.806876 -27.792463 2.311866 -7.540290 -7.782821 -21.088201 9.418699 -10.482769 11.592448 2.347100 -4.550100 15.059900 0.956259 -35.068679 -4.578818 -35.374148 -49.690622 29.651762 45.221871 -24.395759 -56.023122 2.277588 -8.718997 -50.319818 2.229757 7.252464 1.878000 -7.125000 0.000000 0.000000 -18.311800 43.860400 0.533900 16.083191 13.593770 -1.101008 37.934391 19.677938 17.264236 -50.132891 45.081848 -70.532811 -4.979687 7.406317 -45.285557 0.752846 -15.004234 0.353700 7.125000 0.000000 0.000000 28.452600 -51.459400 -4.858200 
5.730536 14.347635 7.635150 -14.836335 25.881593 -45.069939 14.265875 -13.710554 -11.388803 17.377258 -23.955551 -31.164816 -70.588451 43.953534 -23.208056 13.890129 -7.306150 60.180695 0.704600 -5.365100 -14.952800 -28.503457 -7.858175 -1.807558 14.045659 -11.404467 -5.038725 -12.272907 -21.784821 41.853186 0.109909 -11.738645 58.215904 -0.235000 3.120100 -8.613300 4.099474 -5.568264 22.293507 -18.774884 -5.565428 31.678383 15.289888 -27.794127 4.568063 -7.980322 -7.551812 -20.546399 9.540908 -10.034920 11.578719 2.727200 -4.433000 14.733500 0.886572 -33.737272 -3.540902 -38.050719 -49.491375 29.700173 46.487731 -26.189120 -56.635662 2.196440 -8.759821 -50.172789 2.163210 7.153439 1.862300 -7.125000 0.000000 0.000000 -18.273100 43.744400 0.587000 15.564531 13.053399 -0.190873 42.237002 19.473129 16.589362 -53.428020 47.103096 -70.695347 -4.850489 7.336301 -45.141817 0.861533 -14.908659 0.314700 7.125000 0.000000 0.000000 28.394800 -51.240900 -4.686200 
5.718055 14.343267 7.639362 -14.249510 25.445112 -45.266357 14.586203 -13.213953 -11.388790 17.009510 -24.777257 -31.853153 -70.495544 44.928335 -24.975605 12.806783 -7.674582 59.861580 0.600100 -4.959100 -13.792000 -28.434158 -7.583778 -2.010612 14.089000 -12.163666 -5.366059 -12.413075 -21.832797 41.883165 0.028165 -11.716609 58.093443 -0.220000 3.019500 -8.333000 4.041924 -6.353175 22.344199 -20.113235 -7.080557 30.265947 15.457327 -27.811347 5.841012 -7.751498 -7.500253 -20.625300 9.524102 -9.966716 11.554465 2.610800 -4.370400 14.763600 0.947436 -32.754770 -2.993104 -39.680958 -49.334841 29.436268 47.639734 -27.646281 -57.290805 2.138423 -8.783069 -50.089500 2.219880 7.121350 1.881000 -7.125000 0.000000 0.000000 -18.165600 43.702700 0.602700 14.953052 12.695764 0.291808 45.258876 19.745593 16.021389 -55.873964 48.567188 -70.883690 -4.794359 7.289036 -44.919132 0.916592 -14.923691 0.281400 7.125000 0.000000 0.000000 28.438500 -51.182200 -4.651200 
5.705418 14.338587 7.646071 -13.753642 24.834953 -45.378722 14.753347 -12.159741 -11.354876 16.485795 -24.867364 -32.525074 -69.885252 46.184395 -26.634453 11.916905 -8.077378 59.750344 0.539000 -4.703800 -13.065600 -28.208591 -7.132459 -2.284160 14.211892 -12.988696 -5.749323 -12.514532 -21.953539 41.887449 -0.070664 -11.715020 57.981185 -0.209400 2.946400 -8.129600 3.861655 -7.852845 22.518711 -21.676019 -7.123558 28.430719 15.545686 -27.952444 6.878654 -7.498483 -7.353662 -20.636213 9.627484 -9.791177 11.477752 2.649300 -4.292400 14.690800 0.712423 -32.024960 -2.471069 -41.114968 -49.047839 29.187483 48.683259 -29.044432 -57.944638 2.089443 -8.749040 -49.992064 2.310513 7.129768 1.896900 -7.125000 0.000000 0.000000 -18.076700 43.670300 0.614500 14.411191 12.245230 0.635849 48.195917 20.104667 15.617416 -58.013013 49.946279 -71.061635 -4.755283 7.178195 -44.678824 0.956041 -14.977778 0.232100 7.125000 0.000000 0.000000 28.522000 -51.121000 -4.621600 
5.691532 14.330786 7.650907 -13.380361 24.176650 -45.475406 14.792070 -10.906784 -11.273602 15.941495 -24.615585 -33.043229 -69.088775 47.428391 -28.050577 11.191382 -8.437445 59.770139 0.448700 -4.297400 -11.914900 -27.898751 -6.632589 -2.571478 14.355990 -13.751718 -6.113395 -12.580527 -22.119519 41.899115 -0.183988 -11.708791 57.860684 -0.200000 2.879500 -7.943400 3.614534 -9.591160 22.969325 -22.907572 -5.834988 26.851803 15.443817 -28.101935 7.379189 -7.231071 -7.242629 -20.811089 9.727149 -9.638075 11.343033 2.663900 -4.221400 14.624300 0.271358 -31.707638 -2.187800 -41.821169 -48.631465 28.807845 49.320457 -30.084712 -58.599583 2.041449 -8.676540 -49.910756 2.474867 7.155121 1.923200 -7.125000 0.000000 0.000000 -17.943900 43.633800 0.626400 14.130412 11.952367 0.806896 50.135852 20.549800 15.349393 -59.334917 50.791806 -71.235789 -4.727632 7.032269 -44.408561 0.951166 -15.047162 0.187200 7.125000 0.000000 0.000000 28.594200 -51.059200 -4.589100 
5.677647 14.322049 7.654652 -13.125075 23.543189 -45.522469 14.697364 -9.456151 -11.188682 15.387568 -23.934398 -33.423470 -68.019895 48.726726 -29.358231 10.696747 -8.743307 59.941480 0.360000 -3.854300 -10.667200 -27.528902 -6.113388 -2.852513 14.526604 -14.495082 -6.486472 -12.602622 -22.340179 41.902170 -0.308861 -11.704898 57.738399 -0.192900 2.828300 -7.801000 3.345014 -11.462717 23.592519 -23.777838 -3.632960 25.604790 15.203416 -28.225360 7.444124 -7.028126 -7.179149 -21.150802 9.799976 -9.495393 11.173385 2.665300 -4.153900 14.602300 -0.284756 -31.712989 -2.125919 -41.914734 -48.145582 28.279242 49.584275 -30.811067 -59.267788 2.000285 -8.574489 -49.846386 2.696074 7.208936 1.959100 -7.125000 0.000000 0.000000 -17.786400 43.612600 0.630100 14.120293 11.804535 0.858569 51.170067 21.069649 15.201266 -59.955584 51.163006 -71.403934 -4.712546 6.853760 -44.102903 0.916384 -15.163429 0.140900 7.125000 0.000000 0.000000 28.688800 -51.024200 -4.580500 
5.664542 14.314717 7.658552 -12.963169 22.941527 -45.494725 14.483344 -7.809325 -11.127975 14.830264 -22.803819 -33.701849 -66.608426 50.086273 -30.661809 10.438737 -8.958882 60.265649 0.289500 -3.460400 -9.563200 -27.106926 -5.556554 -3.129002 14.736477 -15.271927 -6.896910 -12.572395 -22.624797 41.872474 -0.450484 -11.710131 57.621913 -0.188500 2.796200 -7.711800 3.064351 -13.454473 24.319691 -24.345301 -0.756850 24.635570 14.861328 -28.302029 7.181987 -6.919366 -7.153628 -21.594527 9.835998 -9.357998 10.962312 2.656200 -4.091800 14.572300 -0.899327 -31.939680 -2.218097 -41.572520 -47.642292 27.611523 49.568474 -31.322052 -59.953158 1.963300 -8.444712 -49.792738 2.968641 7.272419 2.001300 -7.125000 0.000000 0.000000 -17.600900 43.588200 0.634100 14.345894 11.726977 0.835422 51.536320 21.688100 15.151012 -60.075457 51.192279 -71.564495 -4.698633 6.637179 -43.770892 0.860204 -15.322462 0.092200 7.125000 0.000000 0.000000 28.797700 -51.000700 -4.583000 
5.653153 14.310972 7.663232 -12.868293 22.359741 -45.377440 14.161737 -5.983677 -11.112213 14.281809 -21.253690 -33.899349 -64.790786 51.479019 -31.985267 10.394956 -9.048184 60.734252 0.245900 -3.191000 -8.811100 -26.636473 -4.938729 -3.402559 14.977634 -16.092199 -7.357992 -12.480801 -22.981769 41.799503 -0.612205 -11.729207 57.515996 -0.186200 2.778900 -7.663900 2.786329 -15.556247 25.121828 -24.660105 2.660275 23.890809 14.439542 -28.315339 6.683506 -6.901491 -7.152601 -22.146278 9.830341 -9.215413 10.713911 2.634500 -4.029400 14.535300 -1.519935 -32.292610 -2.403918 -40.904973 -47.184135 26.781255 49.362015 -31.701837 -60.669954 1.934002 -8.286201 -49.748929 3.280176 7.348456 2.046500 -7.125000 0.000000 0.000000 -17.403000 43.563900 0.637300 14.766818 11.652794 0.769064 51.404457 22.460957 15.172847 -59.871357 50.990984 -71.715797 -4.679808 6.375321 -43.419098 0.789436 -15.538446 0.038600 7.125000 0.000000 0.000000 28.928900 -50.991400 -4.600100 
5.643636 14.311128 7.669161 -12.802730 21.725885 -45.169574 13.755976 -3.986350 -11.141952 13.759438 -19.347487 -34.012875 -62.511895 52.843663 -33.306348 10.540822 -8.981422 61.338617 0.228200 -3.074800 -8.487000 -26.102573 -4.196724 -3.691719 15.240327 -16.966396 -7.878368 -12.319926 -23.416558 41.676050 -0.801235 -11.764582 57.422860 -0.187500 2.789100 -7.692100 2.501007 -17.801129 26.031815 -24.768082 6.694421 23.309135 13.941857 -28.240348 5.986828 -6.972982 -7.172350 -22.832319 9.778341 -9.070014 10.416168 2.593800 -3.968400 14.479800 -2.117614 -32.702889 -2.607692 -39.945473 -46.854873 25.740464 49.026437 -32.001394 -61.424994 1.915770 -8.090677 -49.719681 3.636362 7.443156 2.094500 -7.125000 0.000000 0.000000 -17.195600 43.542300 0.638700 15.372463 11.499613 0.683239 50.869843 23.474767 15.227020 -59.489449 50.651056 -71.861290 -4.641477 6.050777 -43.051721 0.689134 -15.818362 -0.013900 7.125000 0.000000 0.000000 29.058400 -50.984000 -4.618300 
5.634743 14.312376 7.675557 -12.719336 20.970548 -44.920708 13.311910 -1.963087 -11.192574 13.328369 -17.305531 -33.994162 -59.886924 54.040935 -34.482712 10.866891 -8.771775 62.034251 0.232600 -3.104200 -8.569100 -25.505062 -3.300047 -4.005555 15.489944 -17.879127 -8.445879 -12.102093 -23.914972 41.518579 -1.022231 -11.821659 57.341870 -0.191200 2.816000 -7.767000 2.213644 -20.039563 27.132852 -24.717975 11.200028 22.903895 13.422337 -28.015905 5.101041 -7.135432 -7.207123 -23.668420 9.686422 -8.917675 10.057870 2.540100 -3.909200 14.402900 -2.592988 -33.068390 -2.712808 -38.763030 -46.809845 24.425934 48.668908 -32.260973 -62.219802 1.907489 -7.858856 -49.708367 4.028219 7.543811 2.141400 -7.125000 0.000000 0.000000 -16.981200 43.510000 0.644200 16.110622 11.186267 0.606773 49.999259 24.791405 15.204094 -59.118398 50.289133 -72.003294 -4.582942 5.659830 -42.670016 0.565981 -16.195213 -0.068300 7.125000 0.000000 0.000000 29.210300 -51.002900 -4.660700 
